<mxfile host="app.diagrams.net" modified="2023-12-21T23:21:28.068Z" agent="Mozilla/5.0 (Windows NT 10.0; Win64; x64) AppleWebKit/537.36 (KHTML, like Gecko) Chrome/120.0.0.0 Safari/537.36" etag="Uyq0b24XV1-A4iPMpfCc" version="22.1.11" type="device">
  <diagram name="Página-1" id="31uvu6_vJWp5-qCvQpLz">
    <mxGraphModel dx="1195" dy="643" grid="1" gridSize="10" guides="1" tooltips="1" connect="1" arrows="1" fold="1" page="1" pageScale="1" pageWidth="827" pageHeight="1169" math="0" shadow="0">
      <root>
        <mxCell id="0" />
        <mxCell id="1" parent="0" />
        <mxCell id="9e1IrxOd_fiHuhiRs-_u-5" value="" style="group" vertex="1" connectable="0" parent="1">
          <mxGeometry x="110" y="306" width="185" height="120" as="geometry" />
        </mxCell>
        <mxCell id="9e1IrxOd_fiHuhiRs-_u-11" value="" style="group" vertex="1" connectable="0" parent="9e1IrxOd_fiHuhiRs-_u-5">
          <mxGeometry width="180" height="120" as="geometry" />
        </mxCell>
        <mxCell id="9e1IrxOd_fiHuhiRs-_u-2" value="" style="strokeWidth=2;html=1;shape=mxgraph.flowchart.document2;whiteSpace=wrap;size=0.25;" vertex="1" parent="9e1IrxOd_fiHuhiRs-_u-11">
          <mxGeometry y="30" width="150" height="90" as="geometry" />
        </mxCell>
        <mxCell id="9e1IrxOd_fiHuhiRs-_u-3" value="" style="strokeWidth=2;html=1;shape=mxgraph.flowchart.document2;whiteSpace=wrap;size=0.25;" vertex="1" parent="9e1IrxOd_fiHuhiRs-_u-11">
          <mxGeometry x="15" y="15" width="150" height="90" as="geometry" />
        </mxCell>
        <mxCell id="9e1IrxOd_fiHuhiRs-_u-4" value="" style="strokeWidth=2;html=1;shape=mxgraph.flowchart.document2;whiteSpace=wrap;size=0.25;" vertex="1" parent="9e1IrxOd_fiHuhiRs-_u-11">
          <mxGeometry x="30" width="150" height="90" as="geometry" />
        </mxCell>
        <mxCell id="9e1IrxOd_fiHuhiRs-_u-7" value="&lt;font style=&quot;font-size: 15px;&quot;&gt;&lt;b&gt;PDFs Externos&lt;/b&gt;&lt;/font&gt;" style="text;html=1;align=center;verticalAlign=middle;resizable=0;points=[];autosize=1;strokeColor=none;fillColor=none;fontSize=20;" vertex="1" parent="9e1IrxOd_fiHuhiRs-_u-11">
          <mxGeometry x="40" y="15" width="130" height="40" as="geometry" />
        </mxCell>
        <mxCell id="9e1IrxOd_fiHuhiRs-_u-8" style="edgeStyle=orthogonalEdgeStyle;rounded=0;orthogonalLoop=1;jettySize=auto;html=1;entryX=0;entryY=0.5;entryDx=0;entryDy=0;strokeWidth=3;" edge="1" parent="1" source="9e1IrxOd_fiHuhiRs-_u-4" target="9e1IrxOd_fiHuhiRs-_u-6">
          <mxGeometry relative="1" as="geometry" />
        </mxCell>
        <mxCell id="9e1IrxOd_fiHuhiRs-_u-12" value="" style="group;fillColor=#f8cecc;strokeColor=#b85450;fillStyle=solid;" vertex="1" connectable="0" parent="1">
          <mxGeometry x="440" y="320" width="190" height="60" as="geometry" />
        </mxCell>
        <mxCell id="9e1IrxOd_fiHuhiRs-_u-6" value="" style="rounded=0;whiteSpace=wrap;html=1;" vertex="1" parent="9e1IrxOd_fiHuhiRs-_u-12">
          <mxGeometry width="190" height="60" as="geometry" />
        </mxCell>
        <mxCell id="9e1IrxOd_fiHuhiRs-_u-9" value="&lt;span style=&quot;font-size: 15px;&quot;&gt;&lt;b&gt;APLICAÇÃO HTTP&lt;/b&gt;&lt;/span&gt;" style="text;html=1;align=center;verticalAlign=middle;resizable=0;points=[];autosize=1;strokeColor=none;fillColor=default;fontSize=20;" vertex="1" parent="9e1IrxOd_fiHuhiRs-_u-12">
          <mxGeometry x="15" y="10" width="160" height="40" as="geometry" />
        </mxCell>
        <mxCell id="9e1IrxOd_fiHuhiRs-_u-13" value="" style="group;fillColor=#f8cecc;strokeColor=#b85450;fillStyle=solid;" vertex="1" connectable="0" parent="1">
          <mxGeometry x="440" y="450" width="190" height="60" as="geometry" />
        </mxCell>
        <mxCell id="9e1IrxOd_fiHuhiRs-_u-14" value="" style="rounded=0;whiteSpace=wrap;html=1;" vertex="1" parent="9e1IrxOd_fiHuhiRs-_u-13">
          <mxGeometry width="190" height="60" as="geometry" />
        </mxCell>
        <mxCell id="9e1IrxOd_fiHuhiRs-_u-15" value="&lt;span style=&quot;font-size: 15px;&quot;&gt;&lt;b&gt;SERVICE&lt;br&gt;PDF BUFFER&lt;/b&gt;&lt;br&gt;&lt;/span&gt;" style="text;html=1;align=center;verticalAlign=middle;resizable=0;points=[];autosize=1;strokeColor=none;fillColor=default;fontSize=20;" vertex="1" parent="9e1IrxOd_fiHuhiRs-_u-13">
          <mxGeometry x="35" width="120" height="60" as="geometry" />
        </mxCell>
        <mxCell id="9e1IrxOd_fiHuhiRs-_u-16" style="edgeStyle=orthogonalEdgeStyle;rounded=0;orthogonalLoop=1;jettySize=auto;html=1;strokeWidth=3;" edge="1" parent="1" source="9e1IrxOd_fiHuhiRs-_u-6" target="9e1IrxOd_fiHuhiRs-_u-15">
          <mxGeometry relative="1" as="geometry" />
        </mxCell>
        <mxCell id="9e1IrxOd_fiHuhiRs-_u-17" value="" style="html=1;verticalLabelPosition=bottom;align=center;labelBackgroundColor=#ffffff;verticalAlign=top;strokeWidth=2;strokeColor=#0080F0;shadow=0;dashed=0;shape=mxgraph.ios7.icons.documents;" vertex="1" parent="1">
          <mxGeometry x="550" y="390" width="22.5" height="30" as="geometry" />
        </mxCell>
        <mxCell id="9e1IrxOd_fiHuhiRs-_u-18" value="" style="group;fillColor=#f8cecc;strokeColor=#b85450;fillStyle=solid;" vertex="1" connectable="0" parent="1">
          <mxGeometry x="107.5" y="450" width="190" height="60" as="geometry" />
        </mxCell>
        <mxCell id="9e1IrxOd_fiHuhiRs-_u-19" value="" style="rounded=0;whiteSpace=wrap;html=1;" vertex="1" parent="9e1IrxOd_fiHuhiRs-_u-18">
          <mxGeometry width="190" height="60" as="geometry" />
        </mxCell>
        <mxCell id="9e1IrxOd_fiHuhiRs-_u-20" value="&lt;span style=&quot;font-size: 15px;&quot;&gt;&lt;b&gt;SERVICE&lt;br&gt;PDF PARSER&lt;/b&gt;&lt;br&gt;&lt;/span&gt;" style="text;html=1;align=center;verticalAlign=middle;resizable=0;points=[];autosize=1;strokeColor=none;fillColor=default;fontSize=20;" vertex="1" parent="9e1IrxOd_fiHuhiRs-_u-18">
          <mxGeometry x="35" width="120" height="60" as="geometry" />
        </mxCell>
        <mxCell id="9e1IrxOd_fiHuhiRs-_u-22" style="edgeStyle=orthogonalEdgeStyle;rounded=0;orthogonalLoop=1;jettySize=auto;html=1;strokeWidth=3;exitX=0;exitY=0.5;exitDx=0;exitDy=0;" edge="1" parent="1" source="9e1IrxOd_fiHuhiRs-_u-14" target="9e1IrxOd_fiHuhiRs-_u-19">
          <mxGeometry relative="1" as="geometry" />
        </mxCell>
        <mxCell id="9e1IrxOd_fiHuhiRs-_u-23" value="&lt;font color=&quot;#0080f0&quot; size=&quot;1&quot;&gt;&lt;b style=&quot;font-size: 15px;&quot;&gt;... 1010001&lt;/b&gt;&lt;/font&gt;" style="text;html=1;align=center;verticalAlign=middle;resizable=0;points=[];autosize=1;strokeColor=none;fillColor=none;" vertex="1" parent="1">
          <mxGeometry x="330" y="440" width="100" height="30" as="geometry" />
        </mxCell>
        <mxCell id="9e1IrxOd_fiHuhiRs-_u-26" value="" style="dashed=0;outlineConnect=0;html=1;align=center;labelPosition=center;verticalLabelPosition=bottom;verticalAlign=top;shape=mxgraph.weblogos.json;strokeColor=#0080F0;fillColor=#0080F0;" vertex="1" parent="1">
          <mxGeometry x="167.5" y="585" width="70" height="75.8" as="geometry" />
        </mxCell>
        <mxCell id="9e1IrxOd_fiHuhiRs-_u-27" style="edgeStyle=orthogonalEdgeStyle;rounded=0;orthogonalLoop=1;jettySize=auto;html=1;strokeWidth=3;" edge="1" parent="1" source="9e1IrxOd_fiHuhiRs-_u-19" target="9e1IrxOd_fiHuhiRs-_u-26">
          <mxGeometry relative="1" as="geometry" />
        </mxCell>
      </root>
    </mxGraphModel>
  </diagram>
</mxfile>
